<svg id="Layer_1" data-name="Layer 1" xmlns="http://www.w3.org/2000/svg" viewBox="0 0 1133.86 1133.86"><defs><style>.cls-1{fill:#443592;}.cls-2{fill:#fff;}.cls-3{fill:#262424;}.cls-4{fill:#cc2428;}</style></defs><title>Artboard 2</title><path class="cls-1" d="M-4,0V1133.86H1129.86V0ZM338.74,808.49a7,7,0,1,1,7-7A7,7,0,0,1,338.74,808.49Zm40.93-38.7a7,7,0,1,1,7-7A7,7,0,0,1,379.67,769.79ZM495.41,384.45a7.06,7.06,0,1,1,7.06-7.06A7.06,7.06,0,0,1,495.41,384.45Zm39.24-96.12a7,7,0,1,1,7-7A7,7,0,0,1,534.65,288.33Zm31.83,459.41a7,7,0,1,1,7-7A7,7,0,0,1,566.48,747.74Zm32.73-459.45a6.95,6.95,0,1,1,6.95-7A6.95,6.95,0,0,1,599.21,288.29Zm39.24,96.1a7,7,0,1,1,7-7A7,7,0,0,1,638.45,384.39Zm115.74,385.4a7,7,0,1,1,7-7A7,7,0,0,1,754.19,769.79Zm40.93,38.7a7,7,0,1,1,7-7A7,7,0,0,1,795.12,808.49Z"/><path class="cls-1" d="M795.12,794.41a7,7,0,1,0,7,7A7,7,0,0,0,795.12,794.41Z"/><circle class="cls-1" cx="754.19" cy="762.81" r="6.98" transform="translate(-161.49 1321.57) rotate(-76.72)"/><circle class="cls-1" cx="638.45" cy="377.39" r="7"/><path class="cls-1" d="M599.21,274.39a7,7,0,1,0,6.95,6.95A6.95,6.95,0,0,0,599.21,274.39Z"/><path class="cls-1" d="M534.65,274.35a7,7,0,1,0,7,7A7,7,0,0,0,534.65,274.35Z"/><path class="cls-1" d="M566.48,733.79a7,7,0,1,0,7,7A7,7,0,0,0,566.48,733.79Z"/><circle class="cls-1" cx="379.67" cy="762.81" r="6.98" transform="translate(-90.36 52.1) rotate(-7.02)"/><path class="cls-1" d="M338.74,794.41a7,7,0,1,0,7,7A7,7,0,0,0,338.74,794.41Z"/><path class="cls-1" d="M495.41,370.33a7.06,7.06,0,1,0,7.06,7.06A7.06,7.06,0,0,0,495.41,370.33Z"/><path class="cls-2" d="M183.2,858.6h9.87v82.32H183.2V902.7H140.39v38.22h-9.88V858.6h9.88v36.45H183.2Z"/><path class="cls-2" d="M210.71,940.92l28.23-82.32h13.88l28.81,82.32h-9.88l-6.12-17H226.47l-5.88,17Zm35.4-75.27h-.47a9.22,9.22,0,0,1-.82,3.41l-15.88,47.16h34.22l-16.22-47.16A9.26,9.26,0,0,1,246.11,865.65Z"/><path class="cls-2" d="M359.72,873.88h-9.88v-2.23a8.88,8.88,0,0,0-.18-2.29,3.55,3.55,0,0,0-1.24-1.36,6.05,6.05,0,0,0-1.64-1,13,13,0,0,0-2.71-.17H314.91a13.09,13.09,0,0,0-2.71.17,6.05,6.05,0,0,0-1.64,1,3.55,3.55,0,0,0-1.24,1.36,9,9,0,0,0-.17,2.29v56.21a9.2,9.2,0,0,0,.17,2.3,3.62,3.62,0,0,0,1.24,1.35,5.8,5.8,0,0,0,1.64,1,12.15,12.15,0,0,0,2.71.18h29.16a12.08,12.08,0,0,0,2.71-.18,5.8,5.8,0,0,0,1.64-1,3.62,3.62,0,0,0,1.24-1.35,9,9,0,0,0,.18-2.3v-2.23h9.88v4.7a7.34,7.34,0,0,1-2.83,5.88l-2.82,2.36a8.87,8.87,0,0,1-5.65,2.35H310.56a8.89,8.89,0,0,1-5.65-2.35l-2.82-2.36a7.33,7.33,0,0,1-2.82-5.88V869.18a7.35,7.35,0,0,1,2.82-5.88l2.82-2.35a8.84,8.84,0,0,1,5.65-2.35h37.86a8.82,8.82,0,0,1,5.65,2.35l2.82,2.35a7.36,7.36,0,0,1,2.83,5.88Z"/><path class="cls-2" d="M377.24,858.6h9.88v36.45h12.7l17.76-28.58a13.79,13.79,0,0,1,4.23-4.58l2.23-1.53a12.74,12.74,0,0,1,2.65-1.53,11.45,11.45,0,0,1,2.88-.23h2.59v4.58a9.91,9.91,0,0,1-.35,3.41,6.54,6.54,0,0,1-2.47,1.88l-1.3.71a12.29,12.29,0,0,0-2.47,1.65,18.43,18.43,0,0,0-1.88,2.58l-14.11,22.82q-1.77,2.94-2.94,2.94v.47q1.17,0,2.94,2.82l14.93,23.64a13.14,13.14,0,0,0,1.83,2.59,15.38,15.38,0,0,0,2.52,1.64l1.3.71a6.54,6.54,0,0,1,2.47,1.88,10,10,0,0,1,.35,3.41v4.59h-3.29a11.31,11.31,0,0,1-2.88-.24,11.62,11.62,0,0,1-2.65-1.53l-2.23-1.53a17.41,17.41,0,0,1-2.36-1.94,22.6,22.6,0,0,1-1.88-2.76l-18.34-29.64H387.12v37.64h-9.88Z"/><path class="cls-3" d="M460.15,934.13v2.65A12.92,12.92,0,0,1,460,939a2.74,2.74,0,0,1-.92,1.15q-.81.81-3.45.81h-.58c-1.84,0-3.07-.27-3.68-.81a4.69,4.69,0,0,1-.92-3.33v-2.65a11.52,11.52,0,0,1,.12-2.18,2.59,2.59,0,0,1,.92-1.15c.53-.54,1.72-.81,3.56-.81h.46c1.84,0,3.07.27,3.68.81A4.64,4.64,0,0,1,460.15,934.13Z"/><path class="cls-2" d="M488.84,865.65l-.35.12a20,20,0,0,1,.82,5.64v69.51h-9.88V858.6h16l25.16,65.73a10.49,10.49,0,0,1,.71,3.3h.47a10.49,10.49,0,0,1,.71-3.3l25.28-65.73h15.88v82.32h-9.88V871.41a20,20,0,0,1,.82-5.64l-.35-.12L525.3,940.92h-7.53q-5.41-13.29-10.29-25.76t-8.05-20.87q-3.18-8.41-5.53-14.82l-3.65-9.94C489.39,867.18,488.92,865.89,488.84,865.65Z"/><path class="cls-2" d="M598.45,858.6h43a8.81,8.81,0,0,1,5.64,2.35L650,863.3a7.35,7.35,0,0,1,2.82,5.88v61.15a7.33,7.33,0,0,1-2.82,5.88l-2.83,2.36a8.87,8.87,0,0,1-5.64,2.35h-43a8.87,8.87,0,0,1-5.65-2.35L590,936.21a7.33,7.33,0,0,1-2.82-5.88V869.18A7.35,7.35,0,0,1,590,863.3L592.8,861A8.82,8.82,0,0,1,598.45,858.6Zm44.45,69.26V871.65a8.88,8.88,0,0,0-.18-2.29,3.5,3.5,0,0,0-1.23-1.36,6.22,6.22,0,0,0-1.65-1,13,13,0,0,0-2.7-.17H602.8a13.09,13.09,0,0,0-2.71.17,6.05,6.05,0,0,0-1.64,1,3.55,3.55,0,0,0-1.24,1.36,8.88,8.88,0,0,0-.18,2.29v56.21a9,9,0,0,0,.18,2.3,3.62,3.62,0,0,0,1.24,1.35,5.8,5.8,0,0,0,1.64,1,12.15,12.15,0,0,0,2.71.18h34.34a12,12,0,0,0,2.7-.18,6,6,0,0,0,1.65-1,3.57,3.57,0,0,0,1.23-1.35A9,9,0,0,0,642.9,927.86Z"/><path class="cls-2" d="M713.93,903.28H685.82a8.81,8.81,0,0,1-5.64-2.35l-3.18-2.7a5.93,5.93,0,0,1-2.47-4.71V869.18a7.36,7.36,0,0,1,2.83-5.88l2.82-2.35a8.81,8.81,0,0,1,5.64-2.35h31.29a8.81,8.81,0,0,1,5.64,2.35l2.82,2.35a7.34,7.34,0,0,1,2.83,5.88v4.7h-9.88v-2.23a8.88,8.88,0,0,0-.18-2.29,3.59,3.59,0,0,0-1.23-1.36,6.22,6.22,0,0,0-1.65-1,13,13,0,0,0-2.7-.17H690.18a13,13,0,0,0-2.71.17,6.22,6.22,0,0,0-1.65,1,3.59,3.59,0,0,0-1.23,1.36,8.88,8.88,0,0,0-.18,2.29v18.58a8.88,8.88,0,0,0,.18,2.29,3.59,3.59,0,0,0,1.23,1.36,6,6,0,0,0,1.65,1,13,13,0,0,0,2.71.17h28.1a8.89,8.89,0,0,1,5.65,2.35l2.82,2.36a7.34,7.34,0,0,1,2.82,5.88v24.69a7.33,7.33,0,0,1-2.82,5.88l-2.82,2.36a8.89,8.89,0,0,1-5.65,2.35H684.65a8.91,8.91,0,0,1-5.65-2.35l-2.82-2.36a7.33,7.33,0,0,1-2.82-5.88v-4.7h9.88v2.23a9.73,9.73,0,0,0,.17,2.3,3.62,3.62,0,0,0,1.24,1.35,5.8,5.8,0,0,0,1.64,1,12.21,12.21,0,0,0,2.71.18h24.93a12.21,12.21,0,0,0,2.71-.18,5.8,5.8,0,0,0,1.64-1,3.62,3.62,0,0,0,1.24-1.35,9.2,9.2,0,0,0,.17-2.3V908.11a9.2,9.2,0,0,0-.17-2.3,3.62,3.62,0,0,0-1.24-1.35,5.8,5.8,0,0,0-1.64-1A12.21,12.21,0,0,0,713.93,903.28Z"/><path class="cls-2" d="M810.6,873.88h-9.88v-2.23a9.57,9.57,0,0,0-.17-2.29,3.55,3.55,0,0,0-1.24-1.36,6.07,6.07,0,0,0-1.65-1,13,13,0,0,0-2.7-.17H765.79a13,13,0,0,0-2.7.17,6.22,6.22,0,0,0-1.65,1,3.5,3.5,0,0,0-1.23,1.36,8.88,8.88,0,0,0-.18,2.29v56.21a9,9,0,0,0,.18,2.3,3.57,3.57,0,0,0,1.23,1.35,6,6,0,0,0,1.65,1,12,12,0,0,0,2.7.18H795a12,12,0,0,0,2.7-.18,5.82,5.82,0,0,0,1.65-1,3.62,3.62,0,0,0,1.24-1.35,9.73,9.73,0,0,0,.17-2.3v-2.23h9.88v4.7a7.33,7.33,0,0,1-2.82,5.88L805,938.57a8.91,8.91,0,0,1-5.65,2.35H761.44a8.87,8.87,0,0,1-5.64-2.35L753,936.21a7.33,7.33,0,0,1-2.82-5.88V869.18A7.35,7.35,0,0,1,753,863.3L755.8,861a8.81,8.81,0,0,1,5.64-2.35h37.87A8.86,8.86,0,0,1,805,861l2.82,2.35a7.35,7.35,0,0,1,2.82,5.88Z"/><path class="cls-2" d="M839.41,858.6h43.05A8.81,8.81,0,0,1,888.1,861l2.82,2.35a7.36,7.36,0,0,1,2.83,5.88v61.15a7.34,7.34,0,0,1-2.83,5.88l-2.82,2.36a8.87,8.87,0,0,1-5.64,2.35H839.41a8.87,8.87,0,0,1-5.64-2.35L831,936.21a7.31,7.31,0,0,1-2.83-5.88V869.18A7.34,7.34,0,0,1,831,863.3l2.82-2.35A8.81,8.81,0,0,1,839.41,858.6Zm44.46,69.26V871.65a8.88,8.88,0,0,0-.18-2.29,3.59,3.59,0,0,0-1.23-1.36,6.22,6.22,0,0,0-1.65-1,13,13,0,0,0-2.71-.17H843.76a13,13,0,0,0-2.7.17,6.22,6.22,0,0,0-1.65,1,3.59,3.59,0,0,0-1.23,1.36,8.88,8.88,0,0,0-.18,2.29v56.21a9,9,0,0,0,.18,2.3,3.66,3.66,0,0,0,1.23,1.35,6,6,0,0,0,1.65,1,12,12,0,0,0,2.7.18H878.1a12.08,12.08,0,0,0,2.71-.18,6,6,0,0,0,1.65-1,3.66,3.66,0,0,0,1.23-1.35A9,9,0,0,0,883.87,927.86Z"/><path class="cls-2" d="M978.89,940.92l-17.17-70.8-.59-2.94h-.47l-.59,2.94-16.81,70.8H929.38L907.27,858.6h10.47L935.38,931,936,934h.59L937,931l17.41-72.44h13.05L985.36,931l.7,2.94h.47L987,931l17.06-72.44h10.46l-22.11,82.32Z"/><path class="cls-2" d="M575.92,731.28a20.6,20.6,0,0,1-6.23-14.6V212.51h-6.42V716.68A20.66,20.66,0,0,1,557,731.29a13.41,13.41,0,1,0,18.9,0Zm-9.44,16.46a7,7,0,0,1-7-7c0-.1,0-.2,0-.3s0-.35,0-.51a2.9,2.9,0,0,1,.06-.41,3.94,3.94,0,0,1,.1-.47c0-.11,0-.23.09-.34a6.34,6.34,0,0,1,.26-.73c0-.08.08-.17.13-.25a5.12,5.12,0,0,1,.27-.52c0-.08.09-.16.14-.23a8.12,8.12,0,0,1,.48-.67h0a6.88,6.88,0,0,1,.59-.62l.14-.13a6.36,6.36,0,0,1,.57-.46l.11-.08a5.51,5.51,0,0,1,.73-.45l0,0h0a7,7,0,0,1,6.42,0h0l0,0a5.62,5.62,0,0,1,.74.45l.11.08c.19.14.38.3.56.46l.15.13c.2.2.4.4.58.62h0a6.2,6.2,0,0,1,.47.67l.15.23q.15.25.27.51c0,.09.09.18.12.26a7,7,0,0,1,.27.72l.09.36c0,.15.07.3.1.46s0,.27.06.41,0,.33,0,.5,0,.21,0,.31A7,7,0,0,1,566.48,747.74Z"/><path class="cls-2" d="M559.81,738.73a6.34,6.34,0,0,1,.26-.73A6.34,6.34,0,0,0,559.81,738.73Z"/><path class="cls-2" d="M561.09,736.33a5.76,5.76,0,0,1,.59-.62A6.88,6.88,0,0,0,561.09,736.33Z"/><path class="cls-2" d="M560.61,737a8.12,8.12,0,0,1,.48-.67A8.12,8.12,0,0,0,560.61,737Z"/><path class="cls-2" d="M559.52,740.46c0-.17,0-.35,0-.51C559.54,740.11,559.53,740.29,559.52,740.46Z"/><path class="cls-2" d="M560.2,737.75a5.12,5.12,0,0,1,.27-.52A5.12,5.12,0,0,0,560.2,737.75Z"/><path class="cls-2" d="M559.62,739.54a3.94,3.94,0,0,1,.1-.47A3.94,3.94,0,0,0,559.62,739.54Z"/><path class="cls-2" d="M572.88,738a7,7,0,0,1,.27.72A7,7,0,0,0,572.88,738Z"/><path class="cls-2" d="M573.24,739.08c0,.15.07.3.1.46C573.31,739.38,573.28,739.23,573.24,739.08Z"/><path class="cls-2" d="M572.49,737.23q.15.25.27.51Q572.64,737.49,572.49,737.23Z"/><path class="cls-2" d="M573.4,740c0,.16,0,.33,0,.5C573.43,740.28,573.42,740.11,573.4,740Z"/><path class="cls-2" d="M569.72,734.59a5.62,5.62,0,0,1,.74.45A5.62,5.62,0,0,0,569.72,734.59Z"/><path class="cls-2" d="M562.5,735a5.51,5.51,0,0,1,.73-.45A5.51,5.51,0,0,0,562.5,735Z"/><path class="cls-2" d="M561.82,735.58a6.36,6.36,0,0,1,.57-.46A6.36,6.36,0,0,0,561.82,735.58Z"/><path class="cls-2" d="M571.28,735.71c.2.2.4.4.58.62C571.68,736.11,571.48,735.91,571.28,735.71Z"/><path class="cls-2" d="M571.87,736.33a6.2,6.2,0,0,1,.47.67A6.2,6.2,0,0,0,571.87,736.33Z"/><path class="cls-2" d="M570.57,735.12c.19.14.38.3.56.46C571,735.42,570.76,735.26,570.57,735.12Z"/><path class="cls-2" d="M493.87,364.08A13.38,13.38,0,0,0,486,386.86a20.66,20.66,0,0,1,6.25,14.61v324a34.12,34.12,0,0,1-34.12,34.11H403.75a20.62,20.62,0,0,1-14.61-6.25,13.4,13.4,0,1,0,0,18.91A20.61,20.61,0,0,1,403.74,766h54.35a40.53,40.53,0,0,0,40.53-40.53v-324a20.63,20.63,0,0,1,6.24-14.6,13.39,13.39,0,0,0-11-22.79ZM384.78,767.56a7.14,7.14,0,0,1-1.41,1.16l-.08,0a5.83,5.83,0,0,1-.74.39l-.07,0a6.34,6.34,0,0,1-.83.3l-.14,0-.72.15-.23,0a6.54,6.54,0,0,1-.89.06h0l-.72,0a7,7,0,0,1-6.26-7h0v0a7,7,0,0,1,6.43-6.91,4.93,4.93,0,0,1,.55,0h0a8.67,8.67,0,0,1,.89.06l.23,0,.72.15.13,0a6,6,0,0,1,.84.31l.07,0a7.48,7.48,0,0,1,.74.39l.08,0a7.19,7.19,0,0,1,1.41,1.17h0a6.94,6.94,0,0,1,0,9.48ZM495.41,384.45a7.06,7.06,0,1,1,7.06-7.06A7.06,7.06,0,0,1,495.41,384.45Z"/><path class="cls-2" d="M382.48,769.2a6.34,6.34,0,0,1-.83.3A6.34,6.34,0,0,0,382.48,769.2Z"/><path class="cls-2" d="M384.78,767.56a7.14,7.14,0,0,1-1.41,1.16A7.14,7.14,0,0,0,384.78,767.56Z"/><path class="cls-2" d="M383.29,768.77a5.83,5.83,0,0,1-.74.39A5.83,5.83,0,0,0,383.29,768.77Z"/><path class="cls-2" d="M381.51,769.54l-.72.15Z"/><path class="cls-2" d="M379.67,755.83a8.67,8.67,0,0,1,.89.06A8.67,8.67,0,0,0,379.67,755.83Z"/><path class="cls-2" d="M381.64,756.12a6,6,0,0,1,.84.31A6,6,0,0,0,381.64,756.12Z"/><path class="cls-2" d="M380.79,755.93l.72.15Z"/><path class="cls-2" d="M382.55,756.46a7.48,7.48,0,0,1,.74.39A7.48,7.48,0,0,0,382.55,756.46Z"/><path class="cls-2" d="M379.12,755.86a7,7,0,0,0-6.43,6.91A7,7,0,0,1,379.12,755.86Z"/><path class="cls-2" d="M380.56,769.73a6.54,6.54,0,0,1-.89.06A6.54,6.54,0,0,0,380.56,769.73Z"/><path class="cls-2" d="M372.69,762.81h0a7,7,0,0,0,6.26,7A7,7,0,0,1,372.69,762.81Z"/><path class="cls-2" d="M383.37,756.9a7.19,7.19,0,0,1,1.41,1.17A7.19,7.19,0,0,0,383.37,756.9Z"/><path class="cls-2" d="M767.5,761.27a13.38,13.38,0,0,0-22.78-7.91,20.65,20.65,0,0,1-14.6,6.24H675.77a34.12,34.12,0,0,1-34.12-34.11v-324a20.66,20.66,0,0,1,6.25-14.61,13.39,13.39,0,1,0-18.9,0,20.63,20.63,0,0,1,6.24,14.6v324A40.53,40.53,0,0,0,675.77,766h54.35a20.61,20.61,0,0,1,14.59,6.24,13.39,13.39,0,0,0,22.79-11ZM631.44,377.39a7,7,0,1,1,7,7A7,7,0,0,1,631.44,377.39ZM761.17,762.81a7,7,0,0,1-6.26,7l-.72,0h0a6.54,6.54,0,0,1-.89-.06l-.23,0-.72-.15-.14,0a6.34,6.34,0,0,1-.83-.3l-.07,0a7.48,7.48,0,0,1-.74-.39l-.08,0a6.86,6.86,0,0,1-1.41-1.17h0a6.94,6.94,0,0,1,0-9.48h0a7.19,7.19,0,0,1,1.41-1.17l.08,0a7.48,7.48,0,0,1,.74-.39l.07,0a6.39,6.39,0,0,1,.83-.31l.14,0,.72-.15.23,0a8.67,8.67,0,0,1,.89-.06h0l.51,0a7,7,0,0,1,6.47,6.91v0Z"/><path class="cls-2" d="M753.07,769.69l-.72-.15Z"/><path class="cls-2" d="M752.21,769.5a6.34,6.34,0,0,1-.83-.3A6.34,6.34,0,0,0,752.21,769.5Z"/><path class="cls-2" d="M761.17,762.77a7,7,0,0,0-6.47-6.91A7,7,0,0,1,761.17,762.77Z"/><path class="cls-2" d="M749.08,758.07a7.19,7.19,0,0,1,1.41-1.17A7.19,7.19,0,0,0,749.08,758.07Z"/><path class="cls-2" d="M754.19,769.79a6.54,6.54,0,0,1-.89-.06A6.54,6.54,0,0,0,754.19,769.79Z"/><path class="cls-2" d="M754.91,769.76a7,7,0,0,0,6.26-7h0A7,7,0,0,1,754.91,769.76Z"/><path class="cls-2" d="M751.38,756.43a6.39,6.39,0,0,1,.83-.31A6.39,6.39,0,0,0,751.38,756.43Z"/><path class="cls-2" d="M753.3,755.89a8.67,8.67,0,0,1,.89-.06A8.67,8.67,0,0,0,753.3,755.89Z"/><path class="cls-2" d="M750.49,768.72a6.86,6.86,0,0,1-1.41-1.17A6.86,6.86,0,0,0,750.49,768.72Z"/><path class="cls-2" d="M750.57,756.85a7.48,7.48,0,0,1,.74-.39A7.48,7.48,0,0,0,750.57,756.85Z"/><path class="cls-2" d="M751.31,769.16a5.83,5.83,0,0,1-.74-.39A7.48,7.48,0,0,0,751.31,769.16Z"/><path class="cls-2" d="M752.35,756.08l.72-.15Z"/><path class="cls-2" d="M808.43,799.91a13.46,13.46,0,0,0-11.75-11.77,13.32,13.32,0,0,0-11,3.86A20.65,20.65,0,0,1,771,798.24H672.72a70.29,70.29,0,0,1-70.3-70.3V305.42a20.66,20.66,0,0,1,6.25-14.61,13.4,13.4,0,1,0-18.91,0,20.57,20.57,0,0,1,6.24,14.6V727.94a76.72,76.72,0,0,0,76.72,76.72H771a20.61,20.61,0,0,1,14.6,6.24,13.39,13.39,0,0,0,22.79-11ZM596,287.5v0a7,7,0,1,1,6.42,0v0a6.92,6.92,0,0,1-6.42,0Zm199.12,521a7,7,0,1,1,7-7A7,7,0,0,1,795.12,808.49Z"/><path class="cls-2" d="M533.11,268a13.38,13.38,0,0,0-7.92,22.78,20.62,20.62,0,0,1,6.25,14.61V727.94a70.29,70.29,0,0,1-70.3,70.3H362.82A20.65,20.65,0,0,1,348.21,792a13.32,13.32,0,0,0-11-3.86,13.4,13.4,0,0,0,1.56,26.71,13.32,13.32,0,0,0,9.48-4,20.61,20.61,0,0,1,14.6-6.24h98.32a76.72,76.72,0,0,0,76.72-76.72V305.42a20.57,20.57,0,0,1,6.24-14.6,13.39,13.39,0,0,0-11-22.79ZM338.74,808.49a7,7,0,1,1,7-7A7,7,0,0,1,338.74,808.49ZM534.65,288.33a7,7,0,1,1,7-7A7,7,0,0,1,534.65,288.33Z"/><path class="cls-4" d="M580.51,194.87l-10.43-6.55.37,12.44h-7l.37-12.44-10.43,6.55-3.48-6.17,10.81-5.79L549.87,177l3.48-6.17,10.43,6.55-.37-12.34h7l-.37,12.34,10.43-6.55L584,177l-10.81,5.88L584,188.7Z"/></svg>
